<mxfile host="app.diagrams.net" modified="2021-06-28T11:22:25.097Z" agent="5.0 (Windows NT 10.0; Win64; x64) AppleWebKit/537.36 (KHTML, like Gecko) Chrome/91.0.4472.124 Safari/537.36" etag="5jzWa3oD6VHE64KRmib4" version="14.8.1" type="github">
  <diagram id="J9tKo8cZIaspUx6KSkxY" name="Page-1">
    <mxGraphModel dx="868" dy="527" grid="1" gridSize="10" guides="1" tooltips="1" connect="1" arrows="1" fold="1" page="1" pageScale="1" pageWidth="1100" pageHeight="850" background="#F4F1DE" math="0" shadow="0">
      <root>
        <mxCell id="0" />
        <mxCell id="1" parent="0" />
        <mxCell id="ywxi3uwxgrgupSH_6rDq-1" value="" style="rounded=1;whiteSpace=wrap;html=1;fillColor=#F2CC8F;strokeColor=#E07A5F;fontColor=#393C56;" vertex="1" parent="1">
          <mxGeometry x="370" y="40" width="330" height="60" as="geometry" />
        </mxCell>
        <mxCell id="ywxi3uwxgrgupSH_6rDq-2" value="Live Chat Architecture" style="text;html=1;strokeColor=none;fillColor=none;align=center;verticalAlign=middle;whiteSpace=wrap;rounded=0;fontSize=20;fontStyle=1;fontColor=#393C56;" vertex="1" parent="1">
          <mxGeometry x="410" y="60" width="250" height="20" as="geometry" />
        </mxCell>
        <mxCell id="ywxi3uwxgrgupSH_6rDq-12" value="" style="group" vertex="1" connectable="0" parent="1">
          <mxGeometry x="40" y="280" width="80" height="120" as="geometry" />
        </mxCell>
        <mxCell id="ywxi3uwxgrgupSH_6rDq-10" value="" style="ellipse;whiteSpace=wrap;html=1;rounded=0;sketch=0;fontColor=#393C56;strokeColor=#E07A5F;fillColor=#F2CC8F;rotation=-90;" vertex="1" parent="ywxi3uwxgrgupSH_6rDq-12">
          <mxGeometry x="-19.999999999999993" y="20" width="120" height="80" as="geometry" />
        </mxCell>
        <mxCell id="ywxi3uwxgrgupSH_6rDq-11" value="LIVE-CHAT" style="text;html=1;strokeColor=none;fillColor=none;align=center;verticalAlign=middle;whiteSpace=wrap;rounded=0;sketch=0;fontColor=#393C56;fontSize=20;rotation=-90;" vertex="1" parent="ywxi3uwxgrgupSH_6rDq-12">
          <mxGeometry x="5.000000000000007" y="50" width="70" height="20" as="geometry" />
        </mxCell>
        <mxCell id="ywxi3uwxgrgupSH_6rDq-33" value="" style="group" vertex="1" connectable="0" parent="1">
          <mxGeometry x="280" y="140" width="80" height="120" as="geometry" />
        </mxCell>
        <mxCell id="ywxi3uwxgrgupSH_6rDq-34" value="" style="ellipse;whiteSpace=wrap;html=1;rounded=0;sketch=0;fontColor=#393C56;strokeColor=#E07A5F;fillColor=#F2CC8F;rotation=-90;" vertex="1" parent="ywxi3uwxgrgupSH_6rDq-33">
          <mxGeometry x="-19.999999999999993" y="20" width="120" height="80" as="geometry" />
        </mxCell>
        <mxCell id="ywxi3uwxgrgupSH_6rDq-35" value="LIVE-CHAT" style="text;html=1;strokeColor=none;fillColor=none;align=center;verticalAlign=middle;whiteSpace=wrap;rounded=0;sketch=0;fontColor=#393C56;fontSize=20;rotation=-90;" vertex="1" parent="ywxi3uwxgrgupSH_6rDq-33">
          <mxGeometry x="5.000000000000007" y="50" width="70" height="20" as="geometry" />
        </mxCell>
        <mxCell id="ywxi3uwxgrgupSH_6rDq-36" value="" style="group" vertex="1" connectable="0" parent="1">
          <mxGeometry x="280" y="430" width="80" height="120" as="geometry" />
        </mxCell>
        <mxCell id="ywxi3uwxgrgupSH_6rDq-37" value="" style="ellipse;whiteSpace=wrap;html=1;rounded=0;sketch=0;fontColor=#393C56;strokeColor=#E07A5F;fillColor=#F2CC8F;rotation=-90;" vertex="1" parent="ywxi3uwxgrgupSH_6rDq-36">
          <mxGeometry x="-19.999999999999993" y="20" width="120" height="80" as="geometry" />
        </mxCell>
        <mxCell id="ywxi3uwxgrgupSH_6rDq-38" value="LIVE-CHAT" style="text;html=1;strokeColor=none;fillColor=none;align=center;verticalAlign=middle;whiteSpace=wrap;rounded=0;sketch=0;fontColor=#393C56;fontSize=20;rotation=-90;" vertex="1" parent="ywxi3uwxgrgupSH_6rDq-36">
          <mxGeometry x="5.000000000000007" y="50" width="70" height="20" as="geometry" />
        </mxCell>
        <mxCell id="ywxi3uwxgrgupSH_6rDq-46" value="" style="endArrow=classic;html=1;fontSize=20;fontColor=#393C56;strokeColor=#E07A5F;fillColor=#F2CC8F;entryX=0.5;entryY=0;entryDx=0;entryDy=0;" edge="1" parent="1" target="ywxi3uwxgrgupSH_6rDq-34">
          <mxGeometry width="50" height="50" relative="1" as="geometry">
            <mxPoint x="80" y="280" as="sourcePoint" />
            <mxPoint x="130" y="230" as="targetPoint" />
            <Array as="points">
              <mxPoint x="80" y="200" />
            </Array>
          </mxGeometry>
        </mxCell>
        <mxCell id="ywxi3uwxgrgupSH_6rDq-47" value="" style="endArrow=classic;html=1;fontSize=20;fontColor=#393C56;strokeColor=#E07A5F;fillColor=#F2CC8F;entryX=0.55;entryY=-0.012;entryDx=0;entryDy=0;entryPerimeter=0;" edge="1" parent="1" target="ywxi3uwxgrgupSH_6rDq-37">
          <mxGeometry width="50" height="50" relative="1" as="geometry">
            <mxPoint x="80" y="400" as="sourcePoint" />
            <mxPoint x="130" y="350" as="targetPoint" />
            <Array as="points">
              <mxPoint x="80" y="484" />
            </Array>
          </mxGeometry>
        </mxCell>
      </root>
    </mxGraphModel>
  </diagram>
</mxfile>
